<?xml version="1.0" encoding="utf-8"?>
<!-- Generator: Adobe Illustrator 24.2.3, SVG Export Plug-In . SVG Version: 6.00 Build 0)  -->
<svg version="1.1" id="e9a400c3-14c4-48e9-ac4d-1e6d0c39fdb5"
	 xmlns="http://www.w3.org/2000/svg" xmlns:xlink="http://www.w3.org/1999/xlink" x="0px" y="0px" viewBox="0 0 893.6 736.8"
	 style="enable-background:new 0 0 893.6 736.8;" xml:space="preserve">
<style type="text/css">
	.st0{fill:#F2F2F2;}
	.st1{fill:none;stroke:#3F3D56;stroke-width:0.8767;stroke-miterlimit:10;}
	.st2{fill:#57B894;}
	.st3{fill:#656380;}
	.st4{opacity:0.2;enable-background:new    ;}
	.st5{fill:#00af00;}
	.st6{fill:#A0616A;}
	.st7{fill:#575A89;}
	.st8{fill:#3F3D56;}
	.st9{opacity:0.1;enable-background:new    ;}
	.st10{fill:none;stroke:#3F3D56;stroke-width:0.8767;stroke-miterlimit:10.0003;}
</style>
<path class="st0" d="M286.3,557.6c167.5-243.5,459.4-0.7,459.4-0.7"/>
<ellipse transform="matrix(1 -1.473614e-03 1.473614e-03 1 -1.0052 0.3949)" class="st0" cx="267.5" cy="682.3" rx="135" ry="21"/>
<ellipse transform="matrix(1 -1.473614e-03 1.473614e-03 1 -0.9937 0.3627)" class="st1" cx="245.6" cy="674.5" rx="135" ry="21"/>
<path class="st2" d="M196.8,443.1c-0.1-1.2-0.4-2.5-0.8-3.7c-1.2-3.4-3.8-6.1-7-7.6l-3.3,6l0.4-7c-2.5-0.5-5.1-0.4-7.5,0.5
	c-7.1,2.5-10.7,10.4-8.2,17.4c2.5,7.1,10.4,10.7,17.4,8.2C193.6,454.8,197.2,449.2,196.8,443.1z"/>
<path class="st1" d="M159.1,418.8c4.6,11.6,8.9,23.3,12.9,35.1c1.2,3.5,2.4,7.2,1.9,11c-0.4,2.5-1.3,5.1-2.5,7.3
	c-3,5.8-6.6,11.1-10.8,16c-5.7,6.7-13,14.3-10.5,22.7c1.8,5.8,7.5,9.2,12.6,12.6s10.1,8.7,8.9,14.6"/>
<path class="st1" d="M196.3,441.3c-0.1-1.2-0.4-2.5-0.8-3.7c-1.2-3.4-3.8-6.1-7-7.6l-3.3,6l0.4-7c-2.5-0.5-5.1-0.4-7.5,0.5
	c-7.1,2.5-10.7,10.4-8.2,17.4c2.5,7.1,10.4,10.7,17.4,8.2C193,452.9,196.7,447.3,196.3,441.3z"/>
<path class="st2" d="M173.1,416.4c0.5,1.4,0.8,2.9,0.8,4.5c0.1,7.5-5.9,13.7-13.4,13.9c-7.5,0.2-13.7-5.9-13.9-13.4
	c-0.1-7.5,5.9-13.7,13.4-13.9l2.1,7l1.1-6.7C167.8,408.7,171.4,412,173.1,416.4L173.1,416.4z"/>
<path class="st1" d="M172.3,413.9c0.5,1.4,0.8,2.9,0.8,4.5c0.1,7.5-5.9,13.7-13.4,13.9c-7.5,0.2-13.7-5.9-13.9-13.4
	c-0.1-7.5,5.9-13.7,13.4-13.9l2.1,7l1.1-6.7C167.1,406.4,170.7,409.6,172.3,413.9L172.3,413.9z"/>
<path class="st2" d="M162.9,488.3L162.9,488.3c7.1-2.5,10.7-10.3,8.2-17.4s-10.3-10.7-17.4-8.2l0,0l-1.1,6.8l-1.6-5.3
	c-5.3,3.4-7.5,10.1-5.3,16C148.1,487.3,155.9,490.9,162.9,488.3L162.9,488.3z"/>
<path class="st1" d="M162.3,485.9L162.3,485.9c7.1-2.6,10.7-10.4,8.2-17.4c-2.5-7.1-10.4-10.7-17.4-8.2l0,0l-1.1,6.8l-1.6-5.3
	c-5.3,3.4-7.5,10.1-5.3,16C147.4,484.8,155.2,488.4,162.3,485.9L162.3,485.9z"/>
<path class="st2" d="M176.8,504.6l-8.2,4.8l6-9.1c-2.1-2.7-5.1-4.5-8.4-5.1c-7.4-1.3-14.5,3.7-15.8,11c-1.3,7.4,3.7,14.5,11,15.8
	c7.4,1.3,14.5-3.7,15.8-11C177.6,508.8,177.4,506.6,176.8,504.6z"/>
<path class="st1" d="M176.2,502.7l-8.2,4.8l6-9.1c-2.1-2.7-5.1-4.5-8.4-5.1c-7.4-1.3-14.5,3.7-15.8,11c-1.3,7.4,3.7,14.5,11,15.8
	c7.4,1.3,14.5-3.7,15.8-11C177,507,176.9,504.8,176.2,502.7z"/>
<path class="st3" d="M186.2,558.1c-3.6,2.2-21.6,0.1-35.2,0c-13.6-0.1,3.6-16.6,4.5-20.7c0.9-4.1,15.8-1.1,19.4,1.5
	c3.6,2.5,15.6,7.3,15.6,7.3S189.8,555.8,186.2,558.1z"/>
<path class="st4" d="M145.8,554.6c-0.1,2.1,1.3,3.4,5.2,3.5c13.6,0.1,31.6,2.2,35.2,0c3.6-2.2,4.4-11.9,4.4-11.9s-0.2,0-0.4,0
	c-0.4,2.8-1.5,8.8-4.2,10.4c-3.6,2.2-21.6,0.1-35.2,0C147.9,556.6,146.4,555.8,145.8,554.6z"/>
<path class="st5" d="M753.8,429.2l0.2,117.7c0,5.7-4.6,10.4-10.3,10.4l-31.8,0.1c-5.7,0-10.4-4.6-10.4-10.3l-0.2-117.7
	c0-5.7,4.6-10.4,10.3-10.4l31.8-0.1C749.2,418.8,753.8,423.5,753.8,429.2z"/>
<path class="st5" d="M653.8,346.1l0.3,201c0,5.7-4.6,10.4-10.3,10.4l-31.8,0.1c-5.7,0-10.4-4.6-10.4-10.3l-0.3-201
	c0-5.7,4.6-10.4,10.3-10.4l31.8-0.1C649.1,335.7,653.8,340.3,653.8,346.1z"/>
<path class="st5" d="M553.8,288.4l0.4,258.9c0,5.7-4.6,10.4-10.3,10.4l-31.8,0.1c-5.7,0-10.4-4.6-10.4-10.3l-0.4-259
	c0-5.7,4.6-10.4,10.3-10.4l31.8-0.1C549,277.9,553.8,282.6,553.8,288.4z"/>
<path class="st5" d="M453.7,233.2l0.4,314.1c0,5.7-4.6,10.4-10.3,10.4l-31.8,0.1c-5.7,0-10.4-4.6-10.4-10.3l-0.4-314.2
	c0-5.7,4.6-10.4,10.3-10.4l31.8-0.1C449,222.9,453.7,227.5,453.7,233.2z"/>
<path class="st5" d="M353.6,137l0.6,410.6c0,5.7-4.6,10.4-10.3,10.4l-31.8,0.1c-5.7,0-10.4-4.6-10.4-10.3L301,137.1
	c0-5.7,4.6-10.4,10.3-10.4l31.8-0.1C349,126.6,353.6,131.3,353.6,137z"/>
<path class="st1" d="M746.8,422.2l0.2,117.7c0,5.7-4.6,10.4-10.3,10.4l-31.8,0.1c-5.7,0-10.4-4.6-10.4-10.3l-0.2-117.7
	c0-5.7,4.6-10.4,10.3-10.4l31.8-0.1C742.2,411.8,746.8,416.5,746.8,422.2z"/>
<path class="st1" d="M646.7,339l0.3,201c0,5.7-4.6,10.4-10.3,10.4l-31.8,0.1c-5.7,0-10.4-4.6-10.4-10.3l-0.3-201.1
	c0-5.7,4.6-10.4,10.3-10.4l31.8-0.1C642.1,328.7,646.7,333.3,646.7,339z"/>
<path class="st1" d="M546.8,281.4l0.4,258.9c0,5.7-4.6,10.4-10.3,10.4l-31.8,0.1c-5.7,0-10.4-4.6-10.4-10.3l-0.4-259
	c0-5.7,4.6-10.4,10.3-10.4l31.8-0.1C542,270.9,546.7,275.6,546.8,281.4z"/>
<path class="st1" d="M446.7,226.2l0.4,314.1c0,5.7-4.6,10.4-10.3,10.4l-31.8,0.1c-5.7,0-10.4-4.6-10.4-10.3l-0.4-314.2
	c0-5.7,4.6-10.4,10.3-10.4l31.8-0.1C442,215.9,446.6,220.5,446.7,226.2z"/>
<path class="st1" d="M346.6,130l0.6,410.6c0,5.7-4.6,10.4-10.3,10.4l-31.8,0.1c-5.7,0-10.4-4.6-10.4-10.3L294,130.1
	c0-5.7,4.6-10.4,10.3-10.4l31.8-0.1C342,119.6,346.6,124.3,346.6,130z"/>
<line class="st1" x1="893.4" y1="557.5" x2="138.6" y2="558.7"/>
<path class="st6" d="M195.4,475.5c0,0,3.3,37.4-7.1,33.1c-10.4-4.4-2.3-34.1-2.3-34.1L195.4,475.5z"/>
<path class="st7" d="M257.3,664.7c-1.1,0.5-0.5,14.8,0,17.6s18.7,2.7,18.7,0s4.4-5,8.8-11s-7.7-4.9-7.7-4.9
	c-1.8,0.6-3.9,0.4-5.5-0.5c-2.7-1.7-10.4-1.1-10.4-1.1S258.4,664.1,257.3,664.7z"/>
<path class="st7" d="M244.6,664.7c1.1,0.5,0.6,14.8,0,17.6c-0.5,2.7-18.7,2.8-18.7,0c0-2.7-4.4-4.9-8.9-11c-4.4-6,7.7-5,7.7-5
	c1.8,0.6,3.9,0.4,5.5-0.5c2.7-1.7,10.4-1.1,10.4-1.1S243.5,664.2,244.6,664.7z"/>
<path class="st8" d="M204.2,468.4c-13.8,14.3,5.1,84.7,8.4,97.3c3.3,12.6,7.3,64.9,8.9,74.3c1.7,9.4-2.2,30.8,0.1,31.4
	c2.2,0.5,23.1-2.2,23.1-2.2s10.4-5.5,2.7-18.7s-6.8-78.6-6.8-78.6l3.8-47.9l11,50.6c0,0-0.4,48.4-2.1,60s2.3,33.6,2.3,33.6
	s14.3,2.7,20.9,0s1.1-20.9,0-25.3c-1.1-4.4,6.5-78.6,8.7-83.1c2.2-4.4-1.8-91.3-1.8-91.3S217.9,454.1,204.2,468.4z"/>
<ellipse class="st6" cx="243" cy="273.6" rx="19.3" ry="19.3"/>
<path class="st6" d="M226.5,280.8c6,12.6,0,28.6,0,28.6s30.8,0.5,29.2,0c-1.7-0.5,1.6-26.9,1.6-26.9L226.5,280.8z"/>
<path class="st0" d="M257.4,307.7h-22l-8.2,0.1l1.1-3.9c15.9-13.2,29.3,0,29.3,0L257.4,307.7z"/>
<path class="st7" d="M204.1,416.7c2.1-7,3-19.6,3.2-30.8l0,0c0.3-11.6,0-21.5,0-21.5s-0.1-0.1-0.2-0.4c-1.5-2.7-11-20.2-14.8-30
	c-1.1-2.7-1.7-4.8-1.5-6c0.5-5.5,6.6-5.5,12.1-8.9s20.9-9.9,20.9-9.9c12.6-10.4,14.8-6.7,24.2-7.2s14.3,7.1,14.3,7.1
	s23.7,13.7,28.6,14.8s6.6,7.1,6.6,7.1l-1.2,2.5l-15.8,31.1c0,0,2.3,29.1,2.3,35.2s6.1,68.7,6.7,72.1c0.2,1.1-1.7,2-4.6,2.9
	c-6.3,1.8-17.7,3-25.6,2.6c-11.6-0.5-9.9-4.4-12.6-8.8c-2.7-4.4-6.6,5.5-7.7,8.2c-0.9,2.1-24.8-1-38.3-3c-4-0.6-7.2-1.1-8.4-1.4
	C186.6,471.8,199.8,431,204.1,416.7z"/>
<path class="st8" d="M223.3,281.4c0.5,2.9-0.1,6.2,1.4,8.8c0.6,1.1,1.5,1.9,2.5,2.6c4.2,3.2,9.6,4.5,14.8,3.7
	c4.3-0.7,9.2-3.1,11.9-6.6c2.5-3.3,3.1-7.8,6-11c1.4-1.6,3.2-2.7,4.7-4.2c2.3-2.6,3.6-5.9,3.7-9.4c0.1-3.4-0.4-6.8-1.5-10.1
	c-0.3-1.1-0.7-2.1-1.3-3.1c-0.8-1.1-1.8-2.1-2.9-2.9c-0.4-0.3-0.7-0.4-1.1-0.7c-0.7-1.4-1.8-2.6-3.2-3.5c-2.8-1.8-6.4-1.7-9.8-1.6
	c-0.1,0-0.1,0-0.2,0c-0.6-0.1-1.2-0.2-1.8-0.3c-0.8-0.2-1.3-0.7-1.5-1.5l-1.4,1.3c-0.7,0-1.4,0-2,0c-0.3-0.7-0.7-1.3-1.1-2
	c-0.3,0.7-0.5,1.4-0.7,2.1c-0.7,0.1-1.4,0.2-2,0.3l-1.6-1.3c-0.1-0.1-0.5,1.3-0.8,1.8c-0.4,0.1-0.7,0.2-1.1,0.4
	c-0.5,0-1.2-0.1-1.6-0.1c-1.9-0.1-3.9,0.4-5.5,1.4c-1.5,1.1-2.6,2.5-3.5,4c-2.2,3.4-3.5,7.3-3.9,11.3c-1.1,1.5-1.8,3.1-2.2,4.8
	C217,271.3,222.3,275.9,223.3,281.4z"/>
<path class="st6" d="M301,477.1c0,0,3.3,37.4-7.1,33.1c-10.4-4.4-2.3-34.1-2.3-34.1L301,477.1z"/>
<path class="st9" d="M276.6,351.1l11.3-3.1l8-16.7c0,0,0.2,0.9,0.4,2.5l-15.8,31.1c0,0,2.3,29.1,2.3,35.2c0,6,6.1,68.7,6.7,72.1
	c0.2,1.1-1.7,2-4.6,2.9c0.5-12.9-3.2-66.5-3.2-66.5L276.6,351.1z"/>
<path class="st7" d="M278.3,351.1l5,57.4c0,0,4.5,65.2,2.8,69.1s8.8,5.5,18.1,5.4c9.4,0-2.9-108.4-2.4-115.5
	c0.5-7.2-4.5-36.3-4.5-36.3l-3.9-3.3L278.3,351.1z"/>
<path class="st9" d="M193,326.5l2.5,1.9l11.6,23.7c0,0,0,5,0.1,12c-1.5-2.7-11-20.2-14.8-30C192.7,329.4,193,326.5,193,326.5z"/>
<path class="st9" d="M204.1,416.7c2.1-7,3-19.6,3.2-30.8c0.2,11.3,0.3,21.6,0.4,23.7c0.4,4.2-5.2,49-7.3,64.6
	c-4-0.6-7.2-1.1-8.4-1.4C186.6,471.8,199.8,431,204.1,416.7z"/>
<path class="st7" d="M207.9,352.9c0,0-2.7,51.7-2.3,56.7s-7.5,67.1-8,69.8s-17.6-1.1-18.7-3.9c-1.1-2.7,5.4-67.2,6-77.6
	c0.5-10.4,6-71.5,6-71.5l8.2-2.2L207.9,352.9z"/>
<polyline class="st1" points="319.8,67.4 419.9,163.7 519.8,218.8 620.7,275.7 720.9,358.8 "/>
<circle class="st0" cx="723.5" cy="363.2" r="9.6"/>
<circle class="st0" cx="623.4" cy="280" r="9.6"/>
<circle class="st0" cx="522.6" cy="223.2" r="9.6"/>
<circle class="st0" cx="422.5" cy="168.1" r="9.6"/>
<circle class="st0" cx="322.4" cy="71.8" r="9.6"/>
<circle class="st1" cx="720.9" cy="358.8" r="9.6"/>
<circle class="st1" cx="620.7" cy="275.7" r="9.6"/>
<ellipse transform="matrix(0.4641 -0.8858 0.8858 0.4641 84.7679 577.683)" class="st10" cx="519.8" cy="218.8" rx="9.6" ry="9.6"/>
<circle class="st1" cx="419.9" cy="163.7" r="9.6"/>
<circle class="st1" cx="319.8" cy="67.4" r="9.6"/>
<path class="st2" d="M703.4,387.4l11.1-7l10.1,14.3c2.6-5.4,7.2-13.5,15.4-21.5c8.4-8.2,17.1-12.9,22.8-15.5
	c-6,4-14.3,10.6-21.8,20.5c-9.1,12-13,23.5-14.9,30.8C718.6,401.8,711,394.6,703.4,387.4z"/>
</svg>
